<?xml version="1.0" encoding="utf-8"?>
<!-- Generator: Adobe Illustrator 21.0.0, SVG Export Plug-In . SVG Version: 6.00 Build 0)  -->
<svg version="1.1" id="Layer_1" xmlns="http://www.w3.org/2000/svg" xmlns:xlink="http://www.w3.org/1999/xlink" x="0px" y="0px"
	 viewBox="0 0 1000 312.3" style="enable-background:new 0 0 1000 312.3;" xml:space="preserve">
<style type="text/css">
	.st0{fill:#FFFFFF;}
	.st1{fill-rule:evenodd;clip-rule:evenodd;fill:#FFFFFF;}
	.st2{fill-rule:evenodd;clip-rule:evenodd;}
	.st3{fill:none;stroke:#000000;stroke-width:10;stroke-miterlimit:10;}
	.st4{fill:none;stroke:#000000;stroke-width:12;stroke-linecap:round;stroke-miterlimit:10;}
	.st5{fill:#377EEA;}
	.st6{fill:none;}
	.st7{fill:#021323;}
</style>
<rect x="-31.3" y="-375.1" class="st6" width="1062.6" height="1062.6"/>
<g>
	<g>
		<path d="M106.8,94.5h31.3v122.8h74.8v26.9H106.8V94.5z"/>
		<path d="M232,133.6h29.4v110.7H232V133.6z M247.8,76.2c12.7,0,22.9,10.3,22.9,22.9c0,12.6-10.3,22.9-22.9,22.9
			c-12.7,0-22.9-10.3-22.9-22.9C224.9,86.4,235.2,76.2,247.8,76.2L247.8,76.2z"/>
		<path d="M344.2,133.5c7,2.9,12.7,8.3,17,16.1v-16h28.2v105c0,14.3-2.4,25.1-7.2,32.3c-8.3,12.5-24.1,18.7-47.5,18.7
			c-14.2,0-25.7-2.8-34.6-8.3c-8.9-5.6-13.9-13.9-14.8-24.9h31.5c0.8,3.4,2.1,5.8,4,7.3c3.1,2.6,8.4,4,15.7,4
			c10.4,0,17.4-3.5,20.9-10.5c2.3-4.5,3.5-12,3.5-22.6v-7.1c-2.8,4.7-5.8,8.3-8.9,10.7c-5.8,4.4-13.2,6.6-22.5,6.6
			c-14.2,0-25.6-5-34.1-15c-8.5-10-12.8-23.5-12.8-40.6c0-16.5,4.1-30.3,12.3-41.5c8.2-11.2,19.8-16.8,34.8-16.8
			C335.2,130.9,340.1,131.8,344.2,133.5z M354.1,212.8c4.7-5.1,7-13.3,7-24.4c0-10.5-2.2-18.5-6.6-24c-4.4-5.5-10.3-8.2-17.8-8.2
			c-10.1,0-17.1,4.8-20.9,14.3c-2,5.1-3,11.3-3,18.8c0,6.4,1.1,12.2,3.2,17.2c3.9,9.3,10.9,14,21,14
			C343.7,220.5,349.4,218,354.1,212.8z"/>
		<path d="M496.1,134.2c5.6,2.4,10.1,6,13.7,10.9c3,4.1,4.9,8.4,5.6,12.8c0.7,4.4,1,11.5,1,21.4v65.1h-29.6v-67.4c0-6-1-10.8-3-14.4
			c-2.6-5.2-7.6-7.7-14.9-7.7c-7.6,0-13.4,2.6-17.3,7.7s-5.9,12.4-5.9,21.9v60h-29V95h29v52.8c4.2-6.4,9-10.9,14.5-13.5
			c5.5-2.5,11.3-3.8,17.3-3.8C484.3,130.6,490.5,131.8,496.1,134.2z"/>
		<path d="M532.2,155.2v-20.6h15.4v-30.9h28.6v30.9h18v20.6h-18v58.5c0,4.5,0.6,7.4,1.7,8.5c1.2,1.1,4.7,1.7,10.6,1.7
			c0.9,0,1.8,0,2.8-0.1c1,0,1.9-0.1,2.9-0.2v21.6l-13.7,0.5c-13.7,0.5-23-1.9-28-7.1c-3.3-3.3-4.9-8.4-4.9-15.3v-68.2H532.2z"/>
	</g>
	<g>
		<path d="M805.1,133.6h29.4v110.7h-29.4V133.6z M820.9,76.2c12.7,0,22.9,10.3,22.9,22.9c0,12.6-10.3,22.9-22.9,22.9
			c-12.7,0-22.9-10.3-22.9-22.9C798,86.4,808.2,76.2,820.9,76.2L820.9,76.2z"/>
		<path d="M893.2,244.3h-29V94.5h29V244.3z"/>
	</g>
	<g>
		<g>
			<path d="M750,237.4c-29.6,29.6-77.8,29.6-107.4,0c-29.6-29.6-29.6-77.8,0-107.4c29.6-29.6,77.8-29.6,107.4,0
				C779.6,159.6,779.6,207.8,750,237.4z M649.9,137.4c-25.6,25.6-25.6,67.1,0,92.7c25.6,25.6,67.1,25.6,92.7,0
				c25.6-25.6,25.6-67.1,0-92.7S675.5,111.8,649.9,137.4z"/>
		</g>
		<g>
			<g>
				<path class="st5" d="M745.1,44.4c-1.4,1.4-3.7,1.4-5.1,0c-24.1-24.1-63.2-24.1-87.3,0c-1.4,1.4-3.7,1.4-5.1,0
					c-1.4-1.4-1.4-3.7,0-5.1c26.9-26.9,70.7-26.9,97.6,0C746.5,40.7,746.5,43,745.1,44.4z"/>
			</g>
			<g>
				<path class="st5" d="M731.5,58c-1.4,1.4-3.7,1.4-5.1,0c-16.6-16.6-43.6-16.6-60.2,0c-1.4,1.4-3.7,1.4-5.1,0
					c-1.4-1.4-1.4-3.7,0-5.1c19.4-19.4,51.1-19.4,70.5,0C732.9,54.2,732.9,56.5,731.5,58z"/>
			</g>
			<g>
				<path class="st5" d="M716.6,72.9c-1.4,1.4-3.7,1.4-5.1,0c-8.4-8.4-22-8.4-30.4,0c-1.4,1.4-3.7,1.4-5.1,0c-1.4-1.4-1.4-3.7,0-5.1
					c11.2-11.2,29.5-11.2,40.7,0C718,69.2,718,71.5,716.6,72.9z"/>
			</g>
		</g>
		<g>
			<g>
				<path class="st5" d="M719,167.6l-22.8-22.8l-22.8,22.8c-12.6,12.6-12.6,33,0,45.5v0c12.6,12.6,33,12.6,45.5,0l0,0
					C731.6,200.6,731.6,180.2,719,167.6z"/>
			</g>
			<g>
				<path class="st0" d="M678.1,182c0,0-9.5,30,21.5,26.8C699.6,208.7,677.8,204.4,678.1,182z"/>
			</g>
		</g>
	</g>
</g>
</svg>
